<?xml version="1.0" encoding="utf-8"?>
<!-- Generator: Adobe Illustrator 18.1.1, SVG Export Plug-In . SVG Version: 6.00 Build 0)  -->
<svg version="1.1" id="Layer_1" xmlns="http://www.w3.org/2000/svg" xmlns:xlink="http://www.w3.org/1999/xlink" x="0px" y="0px"
	 viewBox="0 0 150 150" enable-background="new 0 0 150 150" xml:space="preserve">
<rect x="51.7" y="18.4" fill="none" width="45.9" height="113.1"/>
<circle cx="74.7" cy="75" r="72.7"/>
<text transform="matrix(1.0051 0 0 1 27.4734 107.8496)" enable-background="new    "><tspan x="0" y="0" fill="#FFFFFF" font-family="'Haettenschweiler'" font-size="90">4 </tspan><tspan x="55.7" y="0" fill="#FFFFFF" font-family="'Haettenschweiler'" font-size="60">hr</tspan></text>
<path fill="none" stroke="#FFFFFF" stroke-width="2" stroke-miterlimit="10" d="M75.7,19.1c30.3,0,54.9,24.6,54.9,54.9"/>
<line fill="#FFFFFF" stroke="#FFFFFF" stroke-width="2" stroke-miterlimit="10" x1="74.7" y1="20.1" x2="74.7" y2="2.3"/>
<line fill="#FFFFFF" stroke="#FFFFFF" stroke-width="2" stroke-miterlimit="10" x1="129.6" y1="75" x2="147.4" y2="75"/>
<line fill="#FFFFFF" stroke="#FFFFFF" stroke-width="2" stroke-miterlimit="10" x1="74.7" y1="129.9" x2="74.7" y2="147.7"/>
<line fill="#FFFFFF" stroke="#FFFFFF" stroke-width="2" stroke-miterlimit="10" x1="20.4" y1="75" x2="2" y2="75"/>
<path fill="none" stroke="#FFFFFF" stroke-width="2" stroke-miterlimit="10" d="M74.1,130.6c-30.3,0-54.9-24.6-54.9-54.9"/>
<path fill="none" stroke="#FFFFFF" stroke-width="2" stroke-miterlimit="10" d="M130.6,75.6c0,30.3-24.6,54.9-54.9,54.9"/>
<path fill="none" stroke="#FFFFFF" stroke-width="2" stroke-miterlimit="10" d="M19.2,74c0-30.3,24.6-54.9,54.9-54.9"/>
</svg>
