<?xml version="1.0" encoding="utf-8"?>
<!-- Generator: Adobe Illustrator 18.1.1, SVG Export Plug-In . SVG Version: 6.00 Build 0)  -->
<svg version="1.1" id="Layer_1" xmlns="http://www.w3.org/2000/svg" xmlns:xlink="http://www.w3.org/1999/xlink" x="0px" y="0px"
	 viewBox="0 0 100 100" enable-background="new 0 0 100 100" xml:space="preserve">
<path fill="none" stroke="#999999" stroke-miterlimit="10" d="M18.5,32C18.5,20.2,33,10.6,51,10.6S83.5,20.1,83.5,32l-9.9-1.2
	c0-8.4-10.4-15.3-23.1-15.3s-23.2,6.9-23.2,15.3"/>
<g>
	<path fill="#FFFFFF" stroke="#999999" stroke-miterlimit="10" d="M81.8,49.5c0,21.5-14,38.9-31.2,38.9S19.3,71,19.3,49.5"/>
	<ellipse fill="#FFFFFF" stroke="#999999" stroke-miterlimit="10" cx="50.5" cy="49.6" rx="31.2" ry="5.1"/>
</g>
<path stroke="#000000" stroke-miterlimit="10" d="M-59.6,89.6"/>
<circle fill="none" stroke="#999999" stroke-width="2" stroke-miterlimit="10" cx="50" cy="50" r="47.5"/>
<path fill="#FFFFFF" stroke="#999999" stroke-miterlimit="10" d="M18.7,31.3c2.8-0.3,5.6-0.6,8.3-0.8"/>
<line fill="none" stroke="#999999" stroke-width="3" stroke-miterlimit="10" x1="24.8" y1="30.9" x2="24.8" y2="49.6"/>
<line fill="none" stroke="#999999" stroke-width="3" stroke-miterlimit="10" x1="75.8" y1="31" x2="75.8" y2="49.5"/>
</svg>
