<?xml version="1.0" encoding="utf-8"?>
<!-- Generator: Adobe Illustrator 18.1.1, SVG Export Plug-In . SVG Version: 6.00 Build 0)  -->
<svg version="1.1" id="Layer_1" xmlns="http://www.w3.org/2000/svg" xmlns:xlink="http://www.w3.org/1999/xlink" x="0px" y="0px"
	 viewBox="0 0 100 100" enable-background="new 0 0 100 100" xml:space="preserve">
<circle stroke="#000000" stroke-width="2" stroke-miterlimit="10" cx="50" cy="50" r="47.5"/>
<rect x="24.4" y="18.9" stroke="#FFFFFF" stroke-miterlimit="10" width="51.1" height="65"/>
<ellipse stroke="#FFFFFF" stroke-miterlimit="10" cx="50" cy="17.4" rx="25.5" ry="6.5"/>
<path stroke="#FFFFFF" stroke-miterlimit="10" d="M75.5,83.2c0,3.3-11.4,6.1-25.5,6.1s-25.5-2.7-25.5-6.1"/>
<path fill="#FFFFFF" stroke="#000000" stroke-miterlimit="10" d="M42.5,15.2l6.8-3.6c2.2-1.2,4.8-1,5.8,0.3l0,0
	c1,1.3,0.1,3.3-2.1,4.5L46.2,20"/>
<ellipse fill="#FFFFFF" stroke="#000000" stroke-width="0.5" stroke-miterlimit="10" cx="40.4" cy="18" rx="9.3" ry="3.2"/>
<g>
	<path fill="#FFFFFF" d="M37.8,60.5c0,2.3-2,6-0.8,7.3c1.3,1.3,3,2,5.2,2c2,0,3.7-0.6,5.1-1.8c1.4-1.2,2.2-2.6,2.2-4.2
		c0-1.7-1.6-4-4.8-7l-2.3-2.1c-3-2.8-4.4-5.3-4.4-7.6c0-2.7,1.1-4.9,3.2-6.7c2.1-1.7,4.8-2.6,8.1-2.6c1.7,0,16.9-0.5,17.9,0
		c1.1,0.5,1.4,1.7,1.4,2.6c0,0.8,2.3,6.7,1.6,7.8c-3,7.6-1.7-5.6-6.3-7.2C58.5,39,49.4,40,47.9,40c-1.7,0-3.2,0.5-4.3,1.6
		c-1.2,1.1-1.8,2.4-1.8,3.9c0,1,0.2,1.8,0.6,2.4c0.4,0.5,1.6,1.7,3.6,3.6l1.9,1.7c3.5,3.2,5.2,6.1,5.2,8.7c0,3-1.2,5.4-3.5,7.4
		c-2.4,2-5.3,2.9-8.9,2.9c-2.4,0-4.4-0.6-6-1.7c-1.6-1.1-2.3-2.5-2.3-4.3C32.3,65.1,35.9,61.9,37.8,60.5z"/>
</g>
</svg>
