<?xml version="1.0" encoding="utf-8"?>
<!-- Generator: Adobe Illustrator 18.1.1, SVG Export Plug-In . SVG Version: 6.00 Build 0)  -->
<svg version="1.1" id="Layer_1" xmlns="http://www.w3.org/2000/svg" xmlns:xlink="http://www.w3.org/1999/xlink" x="0px" y="0px"
	 viewBox="0 0 100 100" enable-background="new 0 0 100 100" xml:space="preserve">
<circle stroke="#000000" stroke-miterlimit="10" cx="50" cy="50" r="47.5"/>
<path fill="#FFFFFF" stroke="#FFFFFF" stroke-miterlimit="10" d="M72.8,84H26.1c-4,0-7.3-3.3-7.3-7.3V40.2c0-4,3.3-7.3,7.3-7.3h46.8
	c4,0,7.3,3.3,7.3,7.3v36.6C80.1,80.7,76.8,84,72.8,84z"/>
<path fill="#FFFFFF" stroke="#FFFFFF" stroke-miterlimit="10" d="M18.8,50V36.4c0-13.3,10.9-24.2,24.2-24.2h12.9
	c13.3,0,24.2,10.9,24.2,24.2V50"/>
<line fill="#FFFFFF" stroke="#000000" stroke-width="2" stroke-miterlimit="10" x1="48" y1="11" x2="48" y2="25"/>
<polygon fill="#FFFFFF" stroke="#000000" stroke-miterlimit="10" points="62.4,39.1 37.2,39.1 43.1,24.7 55.3,24.7 "/>
<path stroke="#FFFFFF" stroke-miterlimit="10" d="M79.1,76.2c0,7.2-13.3,7.1-29.6,7.1s-29.6,0.2-29.6-7.1s13.3-13.1,29.6-13.1
	S79.1,68.9,79.1,76.2z"/>
<circle stroke="#000000" stroke-miterlimit="10" cx="48.9" cy="27.9" r="1.5"/>
</svg>
